# xmcd CD database file generated by Grip 3.2.0
# 
# Track frame offsets:
#       150
#       25278
#       55070
#       89320
#       112484
#       146508
#       172340
#       208130
#       243179
#       269292
#       287183
#       313927
#       336432
# 
# Disc length: 4740 seconds
# 
# Revision: 1
# Processed by: cddbd v1.5.2PL0 Copyright (c) Steve Scherf et al.
# Submitted via: Grip 3.2.0
# 
DISCID=d312820d
DTITLE=Massive Attack - 100th Window
DYEAR=2003
DGENRE=Ambient
TTITLE0=Future Proof
TTITLE1=What Your Soul Sings
TTITLE2=Everywhen
TTITLE3=Special Cases
TTITLE4=Butterfly Caught
TTITLE5=A Prayer for England
TTITLE6=Small Time Shot Away
TTITLE7=Name Taken
TTITLE8=Antistar
TTITLE9=Smile
TTITLE10=Trishika
TTITLE11=Yesterday was a Lie
TTITLE12=8-P 8Q # H - 4N
EXTD=
EXTT0=
EXTT1=
EXTT2=
EXTT3=
EXTT4=
EXTT5=
EXTT6=
EXTT7=
EXTT8=
EXTT9=
EXTT10=
EXTT11=
EXTT12=
PLAYORDER=
